<svg version="1" xmlns="http://www.w3.org/2000/svg" width="933.333" height="933.333" viewBox="0 0 700.000000 700.000000"><path d="M321.5 1.1C221.1 9.7 131.6 59 70.2 139.8 32.9 188.7 8.9 249.9 1.8 313.5c-1.7 15.4-1.7 58.5 0 73 11.8 99.9 59.9 184.2 139.4 244.2 42.4 32 96.9 55.4 149.8 64.2 22.9 3.8 32.2 4.5 59 4.5 40.2 0 72-4.8 107.7-16.4 70.7-22.9 133.8-69.2 177.1-129.7 34.9-48.8 56-104.4 63.4-166.8 1.6-13.9 1.6-59.5 0-73-4.6-37.9-12.8-69.2-26.8-102-34.3-80.1-100.2-146.6-180.3-181.9C438.5 6.5 377.9-3.7 321.5 1.1zM449.8 190l98.1 66.5.1 98.7V454h-34V275.3l-82-55.6-82-55.7-82 55.7-82 55.6V488h362v35H152V389.7l.1-133.2 98.2-66.7c54-36.7 98.9-66.6 99.8-66.5.9.1 45.8 30.1 99.7 66.7zM307 288.5V305h-20l.2 57.7.3 57.8 9.8.3 9.7.3-.2 16.2-.3 16.2-38.7.3-38.8.2v-33h19V305h-19v-33h78v16.5zM481 303v31h-39v-26h-43v39h37v35h-37v39h19v33l-38.7-.2-38.8-.3-.3-16.3-.2-16.2h19V308h-19v-36h141v31z"/></svg>