<?xml version="1.0" standalone="no"?>
<!DOCTYPE svg PUBLIC "-//W3C//DTD SVG 20010904//EN"
 "http://www.w3.org/TR/2001/REC-SVG-20010904/DTD/svg10.dtd">
<svg version="1.0" xmlns="http://www.w3.org/2000/svg"
 width="1068.000000pt" height="1068.000000pt" viewBox="0 0 1068.000000 1068.000000"
 preserveAspectRatio="xMidYMid meet">
<metadata>
Created by potrace 1.11, written by Peter Selinger 2001-2013
</metadata>
<g transform="translate(0.000000,1068.000000) scale(0.100000,-0.100000)"
fill="#000000" stroke="none">
<path d="M4085 9545 c-159 -107 -297 -199 -305 -205 -8 -6 -62 -41 -120 -79
-58 -38 -109 -73 -115 -78 -5 -5 -35 -24 -65 -42 -30 -19 -57 -36 -60 -40 -3
-3 -84 -58 -180 -121 -96 -63 -177 -117 -180 -121 -3 -3 -30 -20 -60 -38 -30
-19 -57 -37 -60 -40 -3 -4 -30 -22 -60 -41 -30 -19 -59 -38 -65 -43 -5 -4 -57
-39 -115 -77 -58 -37 -109 -72 -115 -77 -5 -5 -35 -24 -65 -42 -30 -19 -57
-37 -60 -40 -3 -4 -30 -22 -60 -41 -30 -19 -57 -37 -60 -40 -3 -3 -57 -39
-120 -80 -63 -41 -117 -77 -120 -80 -3 -3 -29 -21 -59 -39 -30 -18 -61 -39
-68 -47 -8 -8 -21 -14 -29 -14 -8 0 -14 -4 -14 -9 0 -9 -96 -71 -110 -71 -5 0
-10 -4 -12 -9 -2 -8 -232 -166 -263 -181 -5 -3 -59 -39 -120 -80 -60 -41 -114
-77 -120 -80 -5 -3 -51 -33 -102 -67 -51 -35 -97 -63 -102 -63 -5 0 -11 -4
-13 -9 -2 -8 -232 -166 -263 -181 -5 -3 -83 -54 -173 -115 -90 -60 -170 -114
-180 -120 -9 -5 -40 -27 -69 -47 -29 -21 -55 -38 -58 -38 -3 0 -30 -18 -60
-40 -30 -22 -57 -40 -60 -40 -4 0 -21 -11 -39 -25 -18 -14 -38 -25 -44 -25 -7
0 -12 -4 -12 -8 0 -5 -29 -27 -65 -50 l-65 -41 0 -2946 0 -2945 5340 0 5340 0
0 2944 0 2944 -24 4 c-14 3 -29 2 -34 -1 -6 -3 -60 -4 -122 -1 -62 3 -116 3
-120 0 -5 -3 -41 -3 -81 0 -100 7 -103 4 -98 -110 1 -8 1 -44 0 -80 0 -36 0
-72 0 -80 1 -8 1 -44 0 -80 0 -36 0 -72 0 -80 1 -8 1 -44 0 -80 0 -36 0 -72 0
-80 1 -8 1 -44 0 -80 0 -36 0 -72 0 -80 1 -8 1 -44 0 -80 0 -36 0 -72 0 -80 1
-8 1 -44 0 -80 0 -36 0 -72 0 -80 1 -8 1 -44 0 -80 0 -36 0 -72 0 -80 1 -8 1
-44 0 -80 0 -36 0 -72 0 -80 1 -8 1 -44 0 -80 0 -36 0 -72 0 -80 1 -8 1 -44 0
-80 0 -36 0 -72 0 -80 1 -8 1 -44 0 -80 0 -36 0 -72 0 -80 1 -8 1 -44 0 -80 0
-36 0 -72 0 -80 1 -8 1 -44 0 -80 0 -36 0 -72 0 -80 1 -8 1 -44 0 -80 0 -36 0
-72 0 -80 1 -8 1 -44 0 -80 0 -36 0 -72 0 -80 1 -8 1 -44 0 -80 0 -36 0 -72 0
-80 1 -8 1 -44 0 -80 0 -36 0 -72 0 -80 1 -8 1 -44 0 -80 0 -36 0 -72 0 -80 1
-8 1 -44 0 -80 0 -36 0 -72 0 -80 1 -8 1 -44 0 -80 0 -36 0 -72 0 -80 1 -8 1
-44 0 -80 0 -36 0 -72 0 -80 1 -8 1 -44 0 -80 0 -36 0 -72 0 -80 1 -8 1 -44 0
-80 0 -36 0 -72 0 -80 1 -8 1 -44 0 -80 0 -36 0 -72 0 -80 1 -8 1 -44 0 -80 0
-36 0 -72 0 -80 1 -8 1 -44 0 -80 0 -36 0 -72 0 -80 1 -8 1 -44 0 -80 0 -36 0
-72 0 -80 1 -8 1 -44 0 -80 0 -36 0 -72 0 -80 1 -8 1 -44 0 -80 0 -36 0 -72 0
-80 1 -8 1 -44 0 -80 0 -36 0 -72 0 -80 1 -8 1 -44 0 -80 0 -36 0 -72 0 -80 1
-8 1 -44 0 -80 0 -36 0 -72 0 -80 1 -8 0 -44 -1 -80 -1 -36 0 -72 1 -80 4 -13
-543 -15 -4864 -18 -4541 -2 -4867 -1 -4859 15 5 9 6 29 2 44 -5 15 -6 30 -3
33 8 8 6 133 -2 146 -3 5 -3 10 2 10 4 0 7 26 5 57 -1 32 -3 65 -2 73 0 8 0
29 -1 45 -1 63 -1 71 0 95 1 14 1 32 1 40 0 8 0 56 0 105 0 92 0 107 0 150 0
14 0 33 0 43 0 9 0 28 -1 42 0 14 0 32 0 40 0 8 1 31 0 50 0 19 0 42 0 50 0 8
1 40 1 70 -1 30 -1 62 0 70 0 8 0 29 -1 45 0 17 0 37 1 45 0 8 0 29 -1 45 -1
17 -1 37 0 45 0 8 1 40 1 70 -1 30 -1 62 0 70 0 8 0 29 -1 45 0 17 0 35 0 40
0 12 1 123 1 148 0 40 0 68 0 85 0 9 0 28 -1 42 -1 32 -1 68 0 100 1 14 1 34
1 45 0 11 0 48 1 82 0 34 -2 67 -6 72 -3 6 -3 11 2 11 4 0 7 26 5 57 -1 32 -3
65 -2 73 0 8 0 29 -1 45 -1 63 -1 71 0 95 1 14 1 32 1 40 0 8 0 56 0 105 0 92
0 107 0 150 0 14 0 33 0 43 0 9 0 28 -1 42 0 14 0 32 0 40 0 8 1 31 0 50 0 19
0 42 0 50 0 8 1 40 1 70 -1 30 -1 62 0 70 0 8 0 29 -1 45 0 17 0 37 1 45 0 8
0 29 -1 45 -1 17 -1 37 0 45 0 8 1 40 1 70 -1 30 -1 62 0 70 0 8 0 29 -1 45 0
17 0 35 0 40 0 12 1 123 1 148 0 40 0 68 0 85 0 9 0 28 -1 42 -1 32 -1 68 0
100 1 14 1 34 1 45 0 11 0 48 1 82 0 34 -2 67 -6 72 -3 6 -3 11 2 11 4 0 7 26
5 57 -1 32 -3 65 -2 73 0 8 0 29 -1 45 -1 63 -1 71 0 95 1 14 1 32 1 40 0 8 0
56 0 105 0 92 0 107 0 150 0 14 0 33 0 43 0 9 0 28 -1 42 0 14 0 32 0 40 0 8
1 31 0 50 0 19 0 42 0 50 3 70 2 120 -2 127 -2 4 -1 17 3 28 4 11 4 32 -1 47
-4 15 -4 30 1 33 4 3 6 14 3 25 -4 13 1 22 13 27 11 5 66 40 122 78 57 39 111
75 120 80 30 18 197 130 202 135 7 7 152 103 165 110 19 9 70 45 83 57 7 7 17
13 22 13 5 0 15 6 22 13 7 6 51 37 98 67 47 30 87 57 90 60 3 3 306 205 675
450 369 245 672 447 675 450 3 3 70 48 150 100 80 52 147 97 150 100 3 3 70
48 150 100 80 52 150 99 155 103 6 5 57 39 115 77 58 38 110 73 115 77 6 4
182 122 393 262 l382 254 87 -58 c49 -32 90 -62 91 -67 2 -4 8 -8 14 -8 13 0
222 -140 226 -152 2 -4 9 -8 15 -8 12 0 128 -78 138 -93 3 -5 9 -8 13 -8 9 1
1270 -840 1274 -850 2 -5 8 -9 14 -9 13 0 222 -140 226 -152 2 -4 8 -8 13 -8
7 0 1754 -1159 1787 -1185 1 -1 2 -445 1 -986 0 -541 0 -991 0 -999 0 -29 0
-465 0 -485 0 -11 0 -410 0 -887 l1 -868 57 0 c90 -1 312 -1 369 -1 47 1 52 3
56 25 3 14 2 30 -3 37 -4 7 -4 20 -1 30 4 10 5 52 2 93 -3 46 -1 78 5 80 6 3
4 5 -2 5 -9 1 -10 8 -4 24 5 12 5 31 1 42 -4 11 -4 29 -1 40 4 11 6 31 4 45
-2 14 -3 41 -2 60 0 19 0 41 0 48 -2 22 -2 36 -2 102 1 209 0 253 -4 261 -3 4
1 10 7 12 10 4 10 6 1 6 -9 1 -10 8 -4 24 5 12 5 31 1 42 -4 11 -4 29 -1 40 4
11 6 31 4 45 -2 14 -3 41 -2 60 0 19 0 42 0 50 -1 8 -1 24 -1 35 2 28 2 34 0
97 -1 31 1 61 4 67 4 5 2 12 -3 16 -6 3 -7 15 -2 28 5 12 5 32 0 44 -4 12 -4
25 0 28 5 3 5 20 1 39 -4 19 -5 37 -3 40 3 3 5 24 4 48 -1 51 -1 61 -2 157 0
41 -2 78 -4 82 -3 4 1 10 7 12 10 4 10 6 1 6 -9 1 -10 8 -4 24 5 12 5 31 1 42
-4 11 -4 29 -1 40 4 11 6 31 4 45 -2 14 -3 41 -2 60 0 19 0 42 0 50 -1 8 -1
24 -1 35 2 28 2 34 0 97 -1 31 1 61 4 67 4 5 2 12 -3 16 -6 3 -7 15 -2 28 5
12 5 32 0 44 -4 12 -4 25 0 28 5 3 5 20 1 39 -4 19 -5 37 -3 40 3 3 5 24 4 48
-1 51 -1 61 -2 157 0 41 -2 78 -4 82 -3 4 1 10 7 12 10 4 10 6 1 6 -9 1 -10 8
-4 24 5 12 5 31 1 42 -4 11 -4 29 -1 40 4 11 6 31 4 45 -2 14 -3 41 -2 60 0
19 0 41 0 48 -2 22 -2 36 -2 102 1 209 0 253 -4 261 -3 4 1 10 7 12 10 4 10 6
1 6 -9 1 -10 8 -4 24 5 12 5 31 1 42 -4 11 -4 29 -1 40 4 11 6 31 4 45 -2 14
-3 41 -2 60 0 19 0 42 0 50 -1 8 -1 24 -1 35 2 28 2 34 0 97 -1 31 1 61 4 67
4 5 2 12 -3 16 -6 3 -7 15 -2 28 5 12 5 32 0 44 -4 12 -4 25 0 28 5 3 5 20 1
39 -4 19 -5 37 -3 40 3 3 5 24 4 48 -1 51 -1 62 -1 153 -1 39 -3 78 -6 89 -4
10 -2 16 3 13 5 -3 7 7 5 24 -4 25 -26 44 -159 134 -85 58 -156 105 -158 105
-2 0 -56 36 -120 80 -64 44 -118 80 -121 80 -4 0 -96 62 -104 70 -15 15 -71
50 -80 50 -5 0 -10 4 -10 8 0 5 -12 15 -27 23 -37 18 -127 82 -131 91 -2 5 -8
8 -14 8 -9 0 -116 66 -128 80 -12 13 -101 70 -109 70 -5 0 -11 3 -13 8 -2 6
-595 404 -650 437 -10 5 -104 69 -210 140 -106 72 -197 132 -201 134 -5 2 -60
39 -124 82 -63 43 -117 79 -120 79 -3 0 -22 14 -43 30 -21 17 -42 30 -48 30
-6 0 -12 3 -14 8 -4 10 -65 52 -76 52 -5 0 -17 9 -27 20 -10 11 -22 20 -27 20
-7 0 -105 66 -118 80 -3 3 -18 12 -35 22 -16 9 -103 66 -193 126 -89 61 -165
112 -170 114 -19 8 -187 124 -190 131 -2 4 -10 7 -17 7 -7 0 -15 3 -17 8 -1 4
-28 23 -58 42 -30 19 -57 37 -60 40 -5 5 -142 97 -172 115 -9 5 -97 64 -195
130 -97 66 -189 127 -203 135 -14 9 -73 48 -132 88 -59 39 -109 72 -110 71 -2
0 -133 -88 -293 -194z"/>
<path d="M6407 6433 c-2 -1 -17 -5 -35 -8 -258 -45 -481 -289 -508 -556 -7
-72 -7 -65 0 -136 7 -73 62 -243 86 -263 3 -3 22 -27 42 -55 75 -103 188 -184
313 -223 82 -25 186 -41 215 -32 3 0 25 3 50 5 48 4 51 5 120 24 25 7 47 12
49 11 2 -1 7 2 10 7 3 4 33 21 66 38 67 33 225 183 225 213 0 5 9 21 21 36 11
15 22 32 23 39 1 6 4 17 8 22 3 6 16 46 27 90 15 61 19 102 17 175 -3 52 -6
102 -9 110 -2 8 -8 29 -12 45 -4 17 -17 50 -28 75 -11 25 -21 47 -21 50 -3 14
-41 70 -48 70 -4 0 -8 5 -8 10 0 20 -95 111 -159 153 -36 23 -67 42 -70 43 -3
0 -24 8 -46 18 -62 27 -162 44 -248 43 -43 -1 -79 -2 -80 -4z"/>
<path d="M1741 6313 c1 -28 1 -794 0 -823 -2 -65 0 -225 3 -228 3 -2 1010 -5
1069 -2 4 0 7 243 7 540 l0 540 -540 0 -540 0 1 -27z"/>
<path d="M4002 6334 c4 -3 2 -19 -2 -35 -5 -18 -5 -29 1 -29 6 0 8 -4 5 -9 -7
-11 -11 -185 -4 -197 3 -5 2 -18 -2 -29 -4 -11 -4 -32 1 -47 4 -15 4 -30 -1
-33 -5 -3 -5 -18 -1 -33 4 -15 6 -36 5 -47 -3 -23 -4 -62 -4 -90 0 -11 0 -77
-1 -147 0 -70 2 -132 6 -138 3 -5 1 -10 -5 -10 -6 0 -9 -4 -6 -9 3 -5 6 -35 6
-67 0 -33 0 -68 0 -79 0 -27 -1 -66 -4 -90 -1 -11 1 -35 5 -53 4 -17 3 -34 -1
-37 -5 -3 -5 -18 -1 -33 5 -15 5 -36 1 -47 -4 -11 -4 -32 1 -47 4 -15 4 -30
-1 -33 -5 -3 -5 -18 -1 -33 4 -15 6 -36 5 -47 -3 -23 -4 -62 -4 -90 0 -11 0
-77 -1 -147 0 -70 2 -132 6 -138 3 -5 1 -10 -5 -10 -6 0 -9 -4 -6 -9 3 -5 6
-35 6 -67 0 -61 0 -85 0 -106 1 -25 1 -153 0 -178 -1 -14 -2 -44 -3 -68 -1
-23 2 -42 6 -42 5 0 6 -4 3 -8 -3 -5 -5 -47 -5 -93 0 -86 -1 -104 -4 -177 -1
-23 2 -42 6 -42 5 0 6 -4 3 -8 -3 -5 -5 -47 -5 -93 0 -86 -1 -104 -4 -177 -1
-23 2 -42 6 -42 5 0 6 -4 3 -8 -3 -5 -5 -47 -5 -93 0 -86 -1 -104 -4 -177 -1
-23 0 -42 3 -42 3 0 4 -28 3 -62 -3 -89 -3 -110 -3 -133 0 -11 0 -77 -1 -147
0 -70 2 -132 6 -138 3 -5 2 -10 -2 -10 -5 0 -6 -24 -3 -54 3 -29 3 -65 -1 -79
-4 -13 -3 -30 1 -37 4 -7 5 -24 1 -39 -11 -42 -3 -61 27 -61 36 -1 1013 -1
1033 0 11 0 16 11 17 41 1 22 4 45 7 49 3 5 1 11 -4 14 -5 4 -6 18 -2 33 4 14
4 48 1 74 -4 31 -2 50 4 53 7 3 6 5 -1 5 -9 1 -10 8 -4 24 5 12 5 31 1 42 -4
11 -4 31 0 44 3 13 3 46 0 72 -4 31 -2 50 4 53 7 3 6 5 -1 5 -9 1 -10 8 -4 24
5 12 5 31 1 42 -4 11 -4 31 0 44 3 13 3 46 0 72 -4 31 -2 50 4 53 7 3 6 5 -1
5 -9 1 -10 8 -4 24 5 12 5 31 1 42 -4 11 -4 31 0 44 3 13 3 46 0 72 -4 31 -2
50 4 53 7 3 6 5 -1 5 -9 1 -10 8 -4 24 5 12 5 31 1 42 -4 11 -4 31 0 44 3 13
3 46 0 72 -4 31 -2 50 4 53 7 3 6 5 -1 5 -9 1 -10 8 -4 24 5 12 5 31 1 42 -4
11 -4 31 0 44 3 13 3 46 0 72 -4 31 -2 50 4 53 7 3 6 5 -1 5 -9 1 -10 8 -4 24
5 12 5 31 1 42 -4 11 -4 31 0 44 3 13 3 46 0 72 -4 31 -2 50 4 53 7 3 6 5 -1
5 -9 1 -10 8 -4 24 5 12 5 31 1 42 -4 11 -4 31 0 44 3 13 3 46 0 72 -4 31 -2
50 4 53 7 3 6 5 -1 5 -9 1 -10 8 -4 24 5 12 5 31 1 42 -4 11 -4 31 0 44 3 13
3 46 0 72 -4 31 -2 50 4 53 7 3 6 5 -1 5 -9 1 -10 8 -4 24 5 12 5 31 1 42 -4
11 -4 31 0 44 3 13 3 46 0 72 -4 31 -2 50 4 53 7 3 6 5 -1 5 -9 1 -10 8 -4 24
5 12 5 31 1 42 -4 11 -4 31 0 44 3 13 3 46 0 72 -4 31 -2 50 4 53 7 3 6 5 -1
5 -9 1 -10 8 -4 24 5 12 5 31 1 42 -4 11 -4 31 0 44 3 13 3 46 0 72 -4 31 -2
50 4 53 7 3 6 5 -1 5 -9 1 -10 8 -4 24 5 12 5 31 1 42 -4 11 -4 31 0 44 3 13
3 46 0 72 -4 31 -2 50 4 53 7 3 6 5 -1 5 -9 1 -10 8 -4 24 5 12 5 31 1 42 -4
11 -4 31 0 44 3 13 3 46 0 72 -4 31 -2 50 4 53 7 3 6 5 -1 5 -9 1 -10 8 -4 24
5 12 5 31 1 42 -4 11 -4 31 0 44 3 13 3 46 0 72 -4 31 -2 50 4 53 7 3 6 5 -1
5 -9 1 -10 8 -4 24 5 12 5 31 1 42 -4 11 -4 31 0 44 3 13 3 46 0 72 -4 31 -2
50 4 53 7 3 6 5 -1 5 -9 1 -10 8 -3 25 5 13 6 26 3 29 -3 3 -5 22 -5 41 l0 36
-541 0 c-297 0 -538 -3 -535 -6z"/>
<path d="M6367 4984 c-126 -27 -231 -85 -324 -180 -43 -43 -104 -125 -108
-144 -1 -3 -11 -27 -23 -53 -12 -27 -22 -54 -22 -61 0 -7 -3 -16 -7 -20 -4 -3
-8 -16 -10 -29 -6 -49 -15 -143 -14 -152 1 -32 11 -104 16 -125 4 -14 9 -36
13 -50 14 -64 87 -185 151 -250 116 -119 253 -185 407 -196 44 -3 85 -7 92 -9
6 -3 12 -1 12 3 0 4 16 8 36 9 19 1 61 10 92 19 31 10 59 18 62 19 3 0 34 16
70 35 60 32 187 146 217 195 69 110 104 215 109 325 10 227 -77 413 -259 557
-50 40 -168 92 -244 108 -61 13 -201 12 -266 -1z"/>
<path d="M1775 4900 c-3 -5 -12 -7 -21 -3 -12 5 -15 -12 -14 -113 0 -66 -1
-144 -1 -174 0 -30 0 -98 0 -150 1 -83 3 -530 2 -570 0 -8 0 -152 0 -320 0
-168 1 -312 0 -320 -2 -361 0 -904 2 -907 3 -3 797 -6 1025 -3 l52 0 0 1279 0
1279 -36 4 c-19 2 -37 1 -40 -4 -3 -4 -16 -3 -29 2 -16 6 -27 6 -31 -1 -4 -7
-10 -7 -18 0 -7 6 -16 8 -19 5 -8 -8 -194 -7 -207 1 -5 3 -11 1 -15 -4 -3 -7
-15 -7 -30 -1 -16 6 -27 6 -31 -1 -3 -6 -10 -6 -17 -1 -7 5 -23 6 -37 3 -13
-4 -46 -4 -73 -1 -26 4 -50 3 -53 -1 -3 -5 -16 -4 -29 1 -16 6 -27 6 -31 -1
-3 -6 -10 -6 -17 -1 -7 5 -23 6 -37 3 -13 -4 -46 -4 -73 -1 -26 4 -50 4 -52 0
-2 -3 -29 -3 -60 0 -31 3 -58 3 -61 -2 -3 -4 -14 -4 -24 2 -12 6 -21 7 -25 0z"/>
</g>
</svg>
