<svg id="Layer_1" data-name="Layer 1" xmlns="http://www.w3.org/2000/svg" viewBox="0 0 512 512"><defs><style>.cls-1{fill:#2ba595;}.cls-2{fill:#fff;}</style></defs><title>immobile</title><circle class="cls-1" cx="256" cy="256" r="256"/><polygon class="cls-2" points="377.23 303.75 155.09 303.75 155.09 173.22 255.58 105.03 356.07 173.22 356.07 282.55 377.23 282.55 377.23 162.01 255.58 79.47 133.94 162.01 133.94 324.9 377.23 324.9 377.23 303.75"/><polygon class="cls-2" points="80.03 361.17 83.66 361.17 83.66 383.57 80.03 383.57 80.03 389.91 95.04 389.91 95.04 383.57 91.34 383.57 91.34 361.17 95.04 361.17 95.04 354.83 80.03 354.83 80.03 361.17"/><path class="cls-2" d="M141.53,375q0-4.67-2.36-7.1a9,9,0,0,0-6.76-2.43,10.44,10.44,0,0,0-2.44.29,11,11,0,0,0-2.28.81,12.8,12.8,0,0,0-2,1.23,11.16,11.16,0,0,0-1.72,1.56,7,7,0,0,0-3.07-2.93,10.5,10.5,0,0,0-4.68-1,10.64,10.64,0,0,0-3.82.7A11.93,11.93,0,0,0,109,368v-2.08h-11v6.34h3.52v11.29H98v6.34h14.9v-6.34h-3.84v-9.28a6.33,6.33,0,0,1,2.38-2,5.88,5.88,0,0,1,2.39-.51,4.41,4.41,0,0,1,1.61.34,4,4,0,0,1,1.26.87,4,4,0,0,1,.83,1.34,4.89,4.89,0,0,1,.3,1.76v13.79h11v-6.34h-3.47v-8.5a4.58,4.58,0,0,0,0-.53,7.44,7.44,0,0,1,2.28-2.11,5.11,5.11,0,0,1,2.44-.62,3.77,3.77,0,0,1,2.93,1.16,4.58,4.58,0,0,1,1,3.19v13.75h11v-6.34h-3.4Z"/><polygon class="cls-2" points="173.43 380.14 163.09 354.83 148.65 354.83 148.65 361.19 151.91 361.19 151.91 383.57 148.65 383.57 148.65 389.91 161.84 389.91 161.84 383.57 159.23 383.57 159.23 364.09 169.92 389.49 176.42 389.49 186.92 363.39 186.92 383.57 184.52 383.57 184.52 389.91 197.63 389.91 197.63 383.57 194.42 383.57 194.42 361.19 197.68 361.19 197.68 354.83 183.03 354.83 173.43 380.14"/><path class="cls-2" d="M223.9,368.92a12.45,12.45,0,0,0-4-2.7,13.74,13.74,0,0,0-10.29,0,12.22,12.22,0,0,0-6.66,6.71,12.7,12.7,0,0,0-.95,4.9,13.23,13.23,0,0,0,.92,4.94,11.95,11.95,0,0,0,6.59,6.72,14.18,14.18,0,0,0,10.46,0,12.08,12.08,0,0,0,6.62-6.74,13.44,13.44,0,0,0,.91-4.92,12.69,12.69,0,0,0-.94-4.9A12.22,12.22,0,0,0,223.9,368.92ZM220,380.36a6,6,0,0,1-1.21,2,5.34,5.34,0,0,1-1.83,1.29,5.73,5.73,0,0,1-2.28.45,5.58,5.58,0,0,1-2.26-.47,5.77,5.77,0,0,1-1.85-1.29,6.32,6.32,0,0,1-1.26-2,6.6,6.6,0,0,1-.46-2.51,6.87,6.87,0,0,1,.46-2.59,6,6,0,0,1,1.26-2,5.63,5.63,0,0,1,1.85-1.24,6.64,6.64,0,0,1,4.54,0,5.35,5.35,0,0,1,1.83,1.24,5.84,5.84,0,0,1,1.21,2,7.29,7.29,0,0,1,.44,2.59A7,7,0,0,1,220,380.36Z"/><path class="cls-2" d="M254.35,368.92a12.18,12.18,0,0,0-8.84-3.7,11.62,11.62,0,0,0-2.71.32,13.4,13.4,0,0,0-2.57.93V353.91H229.77v6.34h3.36v29.66h7.1v-.65a13.5,13.5,0,0,0,2.5.79,13.87,13.87,0,0,0,2.78.27,12.28,12.28,0,0,0,5-1,11.94,11.94,0,0,0,3.91-2.68,12.24,12.24,0,0,0,2.56-4,13.08,13.08,0,0,0,.91-4.89,12.77,12.77,0,0,0-3.51-8.86Zm-4,11.44a5.83,5.83,0,0,1-1.26,1.92,5.3,5.3,0,0,1-1.86,1.23,5.89,5.89,0,0,1-2.25.43,5.67,5.67,0,0,1-2.76-.68,5.56,5.56,0,0,1-2-1.8v-7.17a6,6,0,0,1,2.05-2,5.44,5.44,0,0,1,2.74-.69,5.94,5.94,0,0,1,2.23.42,5.29,5.29,0,0,1,1.84,1.24,5.93,5.93,0,0,1,1.25,2,6.87,6.87,0,0,1,.47,2.59A6.52,6.52,0,0,1,250.34,380.36Z"/><path class="cls-2" d="M270.08,354.41a4,4,0,0,0-1.57-.32,4.05,4.05,0,0,0-2.94,1.2,4.06,4.06,0,0,0-.87,1.31,4.34,4.34,0,0,0,0,3.22,4,4,0,0,0,.87,1.3,3.88,3.88,0,0,0,1.3.88,4.07,4.07,0,0,0,1.64.33,3.81,3.81,0,0,0,1.57-.33,4.1,4.1,0,0,0,1.3-.88,4,4,0,0,0,.87-1.3,4.09,4.09,0,0,0,0-3.22,4.06,4.06,0,0,0-.87-1.31A4.45,4.45,0,0,0,270.08,354.41Z"/><polygon class="cls-2" points="271.91 365.94 261.15 365.94 261.15 372.28 264.76 372.28 264.76 383.57 261.15 383.57 261.15 389.91 275.24 389.91 275.24 383.57 271.91 383.57 271.91 365.94"/><polygon class="cls-2" points="289.75 353.91 278.94 353.91 278.94 360.25 282.64 360.25 282.64 383.57 278.94 383.57 278.94 389.91 293.45 389.91 293.45 383.57 289.75 383.57 289.75 353.91"/><path class="cls-2" d="M320.43,372.31a11.54,11.54,0,0,0-2.32-3.89,10.56,10.56,0,0,0-3.69-2.59,12.65,12.65,0,0,0-5-.93,12.89,12.89,0,0,0-5.13,1,12,12,0,0,0-4,2.72,12.25,12.25,0,0,0-2.58,4,13.32,13.32,0,0,0-.92,5,14.37,14.37,0,0,0,.87,5,12.14,12.14,0,0,0,2.52,4.12,11.91,11.91,0,0,0,4.09,2.78,14,14,0,0,0,5.55,1,21,21,0,0,0,2.92-.17,14.51,14.51,0,0,0,2.36-.54,15.47,15.47,0,0,0,2.2-.94c.74-.38,1.54-.84,2.42-1.38l-2.54-4.74c-.57.22-1.14.42-1.69.61s-1.13.36-1.71.51a17.74,17.74,0,0,1-1.82.35,15.43,15.43,0,0,1-2,.13,8,8,0,0,1-2.06-.27,6.4,6.4,0,0,1-1.85-.8,5.48,5.48,0,0,1-1.44-1.32,4.71,4.71,0,0,1-.87-1.83l-.07-.71h17.65c0-.4,0-.79,0-1.17s0-.76-.08-1.15A15.31,15.31,0,0,0,320.43,372.31Zm-16.52,2.23a7,7,0,0,1,.58-1.45,4,4,0,0,1,1-1.24A4.67,4.67,0,0,1,307,371a6.81,6.81,0,0,1,2.21-.31,5.78,5.78,0,0,1,2,.31,3.84,3.84,0,0,1,1.35.85,3.94,3.94,0,0,1,.83,1.22,8,8,0,0,1,.47,1.48Z"/><polygon class="cls-2" points="335.17 361.87 338.8 361.87 338.8 383.57 335.17 383.57 335.17 389.91 350.18 389.91 350.18 383.57 346.48 383.57 346.48 375.98 353.68 375.98 353.68 369.25 346.48 369.25 346.48 361.87 354.79 361.87 354.79 366.79 362.31 366.79 362.31 354.83 335.17 354.83 335.17 361.87"/><path class="cls-2" d="M387.11,372.31a11.68,11.68,0,0,0-2.31-3.89,10.74,10.74,0,0,0-3.69-2.59,12.72,12.72,0,0,0-5-.93,12.91,12.91,0,0,0-5.14,1,12.09,12.09,0,0,0-4,2.72,12.25,12.25,0,0,0-2.58,4,13.32,13.32,0,0,0-.91,5,14.6,14.6,0,0,0,.86,5,12,12,0,0,0,2.53,4.12A11.77,11.77,0,0,0,371,389.5a14,14,0,0,0,5.55,1,20.88,20.88,0,0,0,2.92-.17,14.28,14.28,0,0,0,2.36-.54,16.09,16.09,0,0,0,2.21-.94c.73-.38,1.54-.84,2.42-1.38l-2.55-4.74c-.57.22-1.13.42-1.69.61s-1.12.36-1.71.51a17.23,17.23,0,0,1-1.82.35,15.43,15.43,0,0,1-2,.13,7.9,7.9,0,0,1-2.05-.27,6.46,6.46,0,0,1-1.86-.8,5.64,5.64,0,0,1-1.44-1.32,4.71,4.71,0,0,1-.87-1.83l-.07-.71H388a11.57,11.57,0,0,0,0-1.17,11.3,11.3,0,0,0-.08-1.15A15.31,15.31,0,0,0,387.11,372.31Zm-16.52,2.23a7,7,0,0,1,.58-1.45,4.2,4.2,0,0,1,1-1.24,4.67,4.67,0,0,1,1.54-.86,6.85,6.85,0,0,1,2.21-.31,5.78,5.78,0,0,1,2,.31,3.67,3.67,0,0,1,1.35.85,4,4,0,0,1,.84,1.22,8,8,0,0,1,.46,1.48Z"/><path class="cls-2" d="M411.29,377.71a9.15,9.15,0,0,0-2.57-1.62,19.53,19.53,0,0,0-4-1.15l-4.35-.86a3.87,3.87,0,0,1-1.05-.31,2.1,2.1,0,0,1-.63-.43,1.19,1.19,0,0,1-.32-.48,1.91,1.91,0,0,1-.08-.54,1.37,1.37,0,0,1,.31-.91,2.2,2.2,0,0,1,.79-.57,4.23,4.23,0,0,1,1-.29,7.88,7.88,0,0,1,1-.08,10.46,10.46,0,0,1,2.28.23,6.58,6.58,0,0,1,1.7.62,3,3,0,0,1,1,.89,1.81,1.81,0,0,1,.36,1.06h6v-6.43h-4a9.91,9.91,0,0,0-1.22-.8,8.63,8.63,0,0,0-1.58-.66,16,16,0,0,0-2-.45,18.14,18.14,0,0,0-2.59-.17,13.89,13.89,0,0,0-4,.55,10.66,10.66,0,0,0-3.25,1.56,7.81,7.81,0,0,0-2.2,2.43,6.3,6.3,0,0,0-.81,3.16,6.18,6.18,0,0,0,2.13,4.85,13.16,13.16,0,0,0,6.31,2.7l4.45.94a3.43,3.43,0,0,1,1.64.76,1.55,1.55,0,0,1,.46,1.14,1.59,1.59,0,0,1-.95,1.4,6.39,6.39,0,0,1-3,.54,7.87,7.87,0,0,1-1.71-.17,5.29,5.29,0,0,1-1.45-.52,3.45,3.45,0,0,1-1-.84,1.93,1.93,0,0,1-.41-1.17V382H391v6.43h4.19a9,9,0,0,0,1.21.85,8.46,8.46,0,0,0,1.51.66,11.48,11.48,0,0,0,1.89.43,15.34,15.34,0,0,0,2.35.17,15.64,15.64,0,0,0,3.95-.52,12.13,12.13,0,0,0,3.51-1.55,8.3,8.3,0,0,0,2.53-2.58,6.74,6.74,0,0,0,1-3.61,7.06,7.06,0,0,0-.43-2.46A5.64,5.64,0,0,0,411.29,377.71Z"/><path class="cls-2" d="M431,384.4c-.45.16-.9.29-1.34.41a6.56,6.56,0,0,1-1.55.17,2.79,2.79,0,0,1-.86-.12,1.26,1.26,0,0,1-.64-.44,2.22,2.22,0,0,1-.4-.86,6.15,6.15,0,0,1-.14-1.43L426.1,372h4.83v-6.06h-4.79l.05-9.17L419,360.2l0,5.74h-3.47V372h3.44l-.07,10.62a9.19,9.19,0,0,0,.56,3.45,7.18,7.18,0,0,0,1.55,2.46,6.14,6.14,0,0,0,2.26,1.47,7.59,7.59,0,0,0,2.69.49,12,12,0,0,0,3.44-.44,11.18,11.18,0,0,0,2.62-1.18Z"/><polygon class="cls-2" points="181.31 191.31 192.85 191.31 192.85 262.42 181.31 262.42 181.31 282.55 228.99 282.55 228.99 262.42 217.24 262.42 217.24 191.31 228.99 191.31 228.99 171.18 181.31 171.18 181.31 191.31"/><polygon class="cls-2" points="249.73 193.51 261.26 193.51 261.26 262.42 249.73 262.42 249.73 282.55 297.41 282.55 297.41 262.42 285.65 262.42 285.65 238.32 308.5 238.32 308.5 216.94 285.65 216.94 285.65 193.51 312.03 193.51 312.03 209.16 335.91 209.16 335.91 171.18 249.73 171.18 249.73 193.51"/></svg>