<svg xmlns="http://www.w3.org/2000/svg" xmlns:xlink="http://www.w3.org/1999/xlink" viewBox="0 0 267 220.21"><defs><style>.cls-1{fill:url(#linear-gradient);}</style><linearGradient id="linear-gradient" x1="237.05" y1="250.16" x2="29.95" y2="43.05" gradientUnits="userSpaceOnUse"><stop offset="0" stop-color="#007db3"/><stop offset="1" stop-color="#00a058"/></linearGradient></defs><title>logo</title><g id="Layer_2" data-name="Layer 2"><g id="Layer_1-2" data-name="Layer 1"><path class="cls-1" d="M43.5,121h27v64h-27ZM127,185V85H100V185ZM255,73V208.21H12V79.42l97.5-65,97.5,65V185h12V73L109.5,0,0,73V220.21H267V73Zm-92.5,9.5a16,16,0,1,0,16,16A16,16,0,0,0,162.5,82.5ZM70.5,85h-27v27h27Zm92,33.5a16,16,0,1,0,16,16A16,16,0,0,0,162.5,118.5Z"/></g></g></svg>